<svg id="Слой_2" data-name="Слой 2" xmlns="http://www.w3.org/2000/svg" viewBox="0 0 168 460"><defs><style>.cls-1{fill:#464141;}.cls-2{fill:#585253;}</style></defs><rect class="cls-1" width="168" height="460" rx="17.13"/><path class="cls-2" d="M1309.5,327.63V456.5l-168,168V327.63a17.13,17.13,0,0,1,17.13-17.13h133.74A17.13,17.13,0,0,1,1309.5,327.63Z" transform="translate(-1141.5 -310.5)"/><path class="cls-1" d="M1301.48,329.16v87.73l-5.1,5.11V334.27a11.66,11.66,0,0,0-11.66-11.66h-91a11.43,11.43,0,0,0-5.28,1.27,11.62,11.62,0,0,1,10.38-6.38h91A11.66,11.66,0,0,1,1301.48,329.16Z" transform="translate(-1141.5 -310.5)"/><path class="cls-1" d="M1141.5,758.84V671.11l5.11-5.11v87.73a11.66,11.66,0,0,0,11.66,11.66h91a11.49,11.49,0,0,0,5.28-1.27,11.63,11.63,0,0,1-10.39,6.38h-91A11.66,11.66,0,0,1,1141.5,758.84Z" transform="translate(-1141.5 -310.5)"/><path class="cls-2" d="M1147,753.34V665.61l5.11-5.11v87.73a11.66,11.66,0,0,0,11.66,11.66h91a11.49,11.49,0,0,0,5.28-1.27,11.63,11.63,0,0,1-10.39,6.38h-91A11.66,11.66,0,0,1,1147,753.34Z" transform="translate(-1141.5 -310.5)"/><path class="cls-1" d="M1287,686.25a61.49,61.49,0,1,1-18-43.49A61.49,61.49,0,0,1,1287,686.25Z" transform="translate(-1141.5 -310.5)"/><path class="cls-1" d="M1287,540.5A61.49,61.49,0,1,1,1269,497,61.49,61.49,0,0,1,1287,540.5Z" transform="translate(-1141.5 -310.5)"/><path class="cls-1" d="M1287,394.75a61.49,61.49,0,1,1-18-43.49A61.49,61.49,0,0,1,1287,394.75Z" transform="translate(-1141.5 -310.5)"/></svg>